<svg xmlns="http://www.w3.org/2000/svg" width="1200" height="520" viewBox="0 0 1200 520">
  <rect x="40" y="40" width="1120" height="440" rx="16" fill="#f8fafc" stroke="#111827" stroke-width="4"/>
  <rect x="150" y="90" width="900" height="72" fill="#e5e7eb" stroke="#111827" stroke-width="3"/>
  <text x="600" y="132" text-anchor="middle" font-family="Arial, sans-serif" font-size="28" fill="#111827">J2 Waveshare 15-pin DSI FPC placeholder</text>
  <rect x="95" y="360" width="1010" height="72" fill="#e5e7eb" stroke="#111827" stroke-width="3"/>
  <text x="600" y="404" text-anchor="middle" font-family="Arial, sans-serif" font-size="28" fill="#111827">J1 Radxa CM3 IO Board U90074 39-pin FPC placeholder</text>

  <g stroke-width="8" fill="none" stroke-linecap="round">
    <path d="M390 360 C390 290 310 235 310 162" stroke="#2563eb"/>
    <path d="M418 360 C418 292 338 236 338 162" stroke="#2563eb"/>
    <path d="M490 360 C490 292 475 236 475 162" stroke="#7c3aed"/>
    <path d="M518 360 C518 292 503 236 503 162" stroke="#7c3aed"/>
    <path d="M565 360 C565 292 610 236 610 162" stroke="#dc2626"/>
    <path d="M593 360 C593 292 638 236 638 162" stroke="#dc2626"/>
    <path d="M850 360 C850 292 810 236 810 162" stroke="#0891b2"/>
    <path d="M875 360 C875 292 835 236 835 162" stroke="#0891b2"/>
    <path d="M945 360 C945 292 930 236 930 162" stroke="#16a34a"/>
  </g>

  <g font-family="Arial, sans-serif" font-size="22" fill="#111827">
    <text x="230" y="225">D1 pair</text>
    <text x="450" y="225">CLK pair</text>
    <text x="635" y="225">D0 pair</text>
    <text x="790" y="225">I2C</text>
    <text x="920" y="225">3V3</text>
    <text x="80" y="70">Draft board: 40 mm x 18 mm target, exact size after connector verification</text>
    <text x="80" y="465">Keep DSI pairs short, paired, and over solid ground. Replace placeholder footprints before fabrication.</text>
  </g>

  <g fill="#111827">
    <circle cx="80" cy="80" r="10"/>
    <circle cx="1120" cy="80" r="10"/>
    <circle cx="80" cy="440" r="10"/>
    <circle cx="1120" cy="440" r="10"/>
  </g>
</svg>

